PathFileType	4	(X/Y/Z)	Kaydara	
DataRate	CameraRate	NumFrames	NumMarkers	Units	OrigDataRate	OrigDataStartFrame	OrigNumFrames	
120.00	120.00	4	72	mm	120.00	1	268	
Frame#	Time	Hips			RightUpLeg			RightLeg			RightFoot			RightFoot_End			LeftUpLeg			LeftLeg			LeftFoot			LeftFoot_End			Spine			Spine1			Spine2			Spine3			Neck			Head			Head_End			RightShoulder			RightArm			RightForeArm			RightHand			RightHandThumb1			RightHandThumb2			RightHandThumb3			RightHandThumb3_End			RightInHandIndex			RightHandIndex1			RightHandIndex2			RightHandIndex3			RightHandIndex3_End			RightInHandMiddle			RightHandMiddle1			RightHandMiddle2			RightHandMiddle3			RightHandMiddle3_End			RightInHandRing			RightHandRing1			RightHandRing2			RightHandRing3			RightHandRing3_End			RightInHandPinky			RightHandPinky1			RightHandPinky2			RightHandPinky3			RightHandPinky3_End			LeftShoulder			LeftArm			LeftForeArm			LeftHand			LeftHandThumb1			LeftHandThumb2			LeftHandThumb3			LeftHandThumb3_End			LeftInHandIndex			LeftHandIndex1			LeftHandIndex2			LeftHandIndex3			LeftHandIndex3_End			LeftInHandMiddle			LeftHandMiddle1			LeftHandMiddle2			LeftHandMiddle3			LeftHandMiddle3_End			LeftInHandRing			LeftHandRing1			LeftHandRing2			LeftHandRing3			LeftHandRing3_End			LeftInHandPinky			LeftHandPinky1			LeftHandPinky2			LeftHandPinky3			LeftHandPinky3_End			
		X1	Y1	Z1	X2	Y2	Z2	X3	Y3	Z3	X4	Y4	Z4	X5	Y5	Z5	X6	Y6	Z6	X7	Y7	Z7	X8	Y8	Z8	X9	Y9	Z9	X10	Y10	Z10	X11	Y11	Z11	X12	Y12	Z12	X13	Y13	Z13	X14	Y14	Z14	X15	Y15	Z15	X16	Y16	Z16	X17	Y17	Z17	X18	Y18	Z18	X19	Y19	Z19	X20	Y20	Z20	X21	Y21	Z21	X22	Y22	Z22	X23	Y23	Z23	X24	Y24	Z24	X25	Y25	Z25	X26	Y26	Z26	X27	Y27	Z27	X28	Y28	Z28	X29	Y29	Z29	X30	Y30	Z30	X31	Y31	Z31	X32	Y32	Z32	X33	Y33	Z33	X34	Y34	Z34	X35	Y35	Z35	X36	Y36	Z36	X37	Y37	Z37	X38	Y38	Z38	X39	Y39	Z39	X40	Y40	Z40	X41	Y41	Z41	X42	Y42	Z42	X43	Y43	Z43	X44	Y44	Z44	X45	Y45	Z45	X46	Y46	Z46	X47	Y47	Z47	X48	Y48	Z48	X49	Y49	Z49	X50	Y50	Z50	X51	Y51	Z51	X52	Y52	Z52	X53	Y53	Z53	X54	Y54	Z54	X55	Y55	Z55	X56	Y56	Z56	X57	Y57	Z57	X58	Y58	Z58	X59	Y59	Z59	X60	Y60	Z60	X61	Y61	Z61	X62	Y62	Z62	X63	Y63	Z63	X64	Y64	Z64	X65	Y65	Z65	X66	Y66	Z66	X67	Y67	Z67	X68	Y68	Z68	X69	Y69	Z69	X70	Y70	Z70	X71	Y71	Z71	X72	Y72	Z72	

1	0.0	6446.805	859.65103	-201.189	6557.138212350241	857.3230898002723	-240.29984436968334	6380.873916496761	473.0826948593193	-306.4169862655547	6418.704060897305	25.081311707070576	-320.97762677957854	6305.640879656902	-38.68766352479951	-143.1293839403616	6347.698974398103	835.0721457249089	-147.59024675499552	6229.681881161296	434.51033205130636	-103.8402743418097	6182.0351724877755	51.98743063776901	54.67880963111429	6204.41786107492	8.500461418405838	240.5325192757249	6390.977858160485	977.2784514053312	-262.22450651931956	6331.378713994169	1035.3403776948671	-314.3414012695007	6260.6633151249425	1085.6026887608973	-369.3197980196751	6185.59731197388	1123.7203332546724	-422.5790453410102	6104.374024476347	1164.8149617392835	-476.3775779295495	6057.246731481482	1232.8447316450274	-428.79691993313185	6029.228356667304	1312.7615660999809	-290.59462864111697	6156.40371878176	1157.7000129123944	-484.760186889275	6252.202274940721	1146.5569762482037	-589.7785371509922	6282.590689074129	880.6390586321362	-632.2145197773093	6381.891850007931	718.7952593633797	-740.9503699565875	6376.29679378593	711.468005783577	-758.9539406539769	6358.258380933829	705.5031271531242	-774.3325101044709	6348.148814904234	699.8255327712055	-783.7705172898073	6341.8188590504415	693.7889217335152	-790.550723636242	6386.62886147064	704.5130298410038	-756.1885614977916	6394.066902107078	680.5893512022556	-774.148547074149	6388.270119744043	668.3252936108594	-785.8922470586419	6376.068348359748	666.2049241688054	-792.421281971503	6360.169387839762	668.1626407449398	-797.3046118566054	6392.518515331249	701.4100247170672	-752.0689381988493	6402.962203221092	676.3959159864418	-767.3584798166786	6397.376055559071	662.6870324569799	-779.570417724926	6383.009808948435	659.9722918527132	-787.1582018674185	6365.7859121556285	662.0382654530616	-792.3608310010604	6396.61868021696	699.769001620243	-748.7030400362477	6409.914764652989	675.7535200494027	-759.4922305800968	6405.783606238641	663.5113116588544	-769.495978754634	6392.31799006489	660.7368767734107	-776.4750023879833	6376.308825678826	662.6055676340176	-781.2056660196284	6400.113187261359	699.0374055199507	-744.2803046116828	6414.897654769703	676.353012916054	-751.4650978838698	6412.6816131711375	666.1971888899658	-758.4298320284962	6403.387989503294	664.0028852842678	-763.0144260295053	6389.51049025146	665.5600486412281	-766.9138541249172	6105.879064295642	1148.3854454145362	-429.7471003238839	6033.365288479417	1078.2962207366809	-323.189495115048	6128.994545184346	908.1016409971322	-539.9453752819094	6359.855795766061	780.6146168232332	-554.8439305748257	6344.6427250935	777.54913351839	-560.3420343877544	6341.314093749995	769.2973259105099	-594.8417951078974	6339.865747734264	761.9081746775012	-621.4483437065392	6339.4023405804455	754.3429567154685	-645.8369786124314	6345.1807595684495	771.2652579782424	-568.1528062678688	6331.106537805681	751.3793365086623	-606.4925629901628	6327.636023212519	738.1515046857209	-643.5655367252731	6329.333177549218	733.1441628231848	-667.2407199750417	6333.338076996993	731.1691437804556	-687.2595425742633	6348.336683365761	767.5188385363708	-574.3319865822242	6336.314346437111	746.0960922430644	-615.0667912893349	6332.997291950556	731.2328319556909	-656.2247285458549	6335.2703836463	724.9857683649053	-685.1257677960427	6339.7621112946945	722.7246583518041	-707.1942065678022	6350.864172561131	765.3585523256515	-577.6381877870324	6342.104370416149	744.2230695860643	-616.7776763182636	6339.713193647406	730.8636403178389	-653.3072930872245	6342.171298275872	724.6230188106446	-681.5331224286764	6346.5204894996095	722.395199972527	-702.4481565965497	6354.668090474151	763.6094395557881	-580.9762813115917	6348.768430473757	743.0692393904706	-618.6732221044047	6347.672342844862	731.8326726164206	-648.7784576622606	6349.861316886898	727.0200893109736	-669.7794454768177	6353.941907712096	724.8965977909363	-688.5444206995908
2	0.008	6446.805	859.65103	-201.189	6556.403336381687	856.9703567280023	-240.54267984108992	6380.730358160347	472.69287706584066	-306.7559635618526	6419.024790847034	25.38380870528846	-322.5985786099841	6306.665145548623	-38.672624008787864	-145.08719791526036	6348.42180032794	835.4347594246093	-147.32587402624736	6230.325327995483	434.92978722002437	-103.46967262487804	6182.370767732259	52.16940138768512	54.243903736674454	6204.809955689616	8.27667182677803	239.90716683187873	6391.074854058822	977.2570916562041	-262.302850917849	6331.5016282064635	1035.3348733313003	-314.38283204493746	6260.7764868514405	1085.572924157828	-369.29956336911886	6185.729333530197	1123.7360315368708	-422.4406284023306	6104.518827262379	1164.8669477917117	-476.0962316547617	6057.267715707905	1232.870901346523	-428.664248744993	6029.282426680501	1312.9872236376684	-290.63427579183804	6156.303085082126	1157.5162572289955	-484.4858479086337	6251.054422621133	1145.529238323795	-589.0620366706893	6280.493173649517	880.466555392662	-629.6197501677087	6378.045724733649	718.5347156278692	-736.336888830968	6372.174070292876	711.1329192629732	-754.2187269246211	6354.023857357941	705.1953049098977	-769.2150187259714	6343.8441784604665	699.5435163674188	-778.3690790044376	6337.462397574102	693.5342525918436	-784.8974048990225	6382.48935597512	704.186199683786	-751.3967441584616	6389.590762743765	680.2270030131635	-768.9399488920342	6383.662093152669	667.9881677463998	-780.2968364937178	6371.454335658757	665.9080919198013	-786.5790530983389	6355.601689723022	667.9157617616518	-791.2538171578033	6388.41665641536	701.1053514657399	-747.238808615508	6398.552335437657	676.0685701826214	-762.1011392449477	6392.828460019997	662.3903102575678	-773.8871636955561	6378.4579602810045	659.7256705026242	-781.175335822036	6361.286183627209	661.8470256827613	-786.1488638090409	6392.5509528688835	699.4804191102737	-743.8572622234966	6405.597539565901	675.4572122603053	-754.2522958881732	6401.353158080284	663.2449061721427	-763.8815722040816	6387.88706203403	660.5205028351257	-770.5698733306217	6371.9286206170045	662.4420741166743	-775.0843078042235	6396.10286925692	698.7720964761421	-739.4223913997655	6410.690239830385	676.0933793011131	-746.2406803088045	6408.395270617144	665.9665460222976	-752.9022032825018	6399.106974801725	663.8111765389064	-757.2731234162936	6385.27767548292	665.4165880444573	-760.9800756752064	6106.273795143578	1148.6453121949658	-429.5919847831084	6034.653137641971	1079.5441980016246	-323.0530643365662	6129.340680837133	908.7145383678389	-537.4764660428981	6357.846848276198	780.4136164820583	-552.1836546910245	6342.582738733471	777.1724961607284	-557.4334279147465	6339.075857416519	768.7633391103485	-591.6654993066822	6337.527177749718	761.2724491349752	-618.0880007698129	6337.000486918754	753.6291226301541	-642.325232521969	6343.222063248891	770.8983409853369	-565.2282173680513	6329.223443143871	750.7977494468169	-603.1801880339947	6325.695199837148	737.4326428312379	-639.9923860266248	6327.27064484832	732.3568783460124	-663.5385905284908	6331.116917689306	730.336639686621	-683.4730153433378	6346.4348422999	767.1812913527106	-571.4277776058166	6334.517029863442	745.565045195734	-611.795368414777	6331.144100689039	730.5565773471635	-652.6727056323826	6333.273770346789	724.2291657803971	-681.4200364624788	6337.593592464581	721.9196472534495	-703.3970522461932	6349.001861456062	765.0471185293738	-574.758118812061	6340.373826345498	743.7605547364408	-613.589015694241	6337.94104624456	730.2795564452828	-649.8786867262978	6340.264577712378	723.9640848329171	-677.958708908237	6344.453920295265	721.6920070089323	-698.7889466919819	6352.838979603584	763.3352239117694	-578.1364824487687	6347.084999521418	742.6789445094779	-615.5745692855456	6345.9660858521365	731.3534812334183	-645.4962293798308	6348.061975388474	726.4903901924038	-666.3950077453457	6352.003886104329	724.3300451643995	-685.0872511912612
3	0.017	6446.805	859.65103	-201.189	6555.678219911172	856.618971004556	-240.7789644065548	6380.5902651558745	472.30365214497124	-307.07914854465884	6419.314052345867	25.680538760779665	-324.20283489465885	6307.651380164275	-38.66294632105964	-147.02869464417657	6349.133261375172	835.7960462819414	-147.0667193292179	6230.944889695008	435.3525569956482	-103.0976752169631	6182.690552629738	52.35361669251239	53.812352638018616	6205.184004694304	8.049387248346022	239.28536857280693	6391.178276405591	977.2355562264679	-262.38743079046367	6331.633271955922	1035.3290036001035	-314.43416534635736	6260.9025837149065	1085.5460652703036	-369.29281782291525	6185.874430717979	1123.7536033143977	-422.3183479068069	6104.676789811065	1164.9197486832616	-475.8339378332227	6057.301651102203	1232.8977668367702	-428.55036824425196	6029.349097488293	1313.210260033348	-290.69035349314873	6156.216923141795	1157.3342097380632	-484.2307590368276	6249.9273338378625	1144.5119374790006	-588.3776198935242	6278.418702507761	880.2938574476852	-627.0536513854559	6374.1812041050625	718.2787940305466	-731.7400518231935	6368.033376554627	710.7993179843188	-749.5100139841481	6349.762428338789	704.8855930859328	-764.1330938994106	6339.505580353688	699.2578524312332	-773.0082536953622	6333.065378710435	693.2749770924963	-779.2878222793731	6378.3295982860345	703.8628699677083	-746.6275963295029	6385.0855481880335	679.8678589490687	-763.7593694333907	6379.015284128287	667.6530793137366	-774.7342029354154	6366.794911233918	665.6115850392484	-780.7737449633166	6350.982691932301	667.667125521644	-785.2441726318291	6384.2924151488805	700.8057542248977	-742.4277656644753	6394.110328425669	675.7468639079071	-756.8661644824367	6388.2378758259065	662.0981621249612	-768.2309788993343	6373.85500167615	659.4816573259747	-775.2243037266387	6356.728842745583	661.6561637663237	-779.9732442921435	6388.459592372723	699.1980469030452	-739.0278854936967	6401.246936350893	675.1686441014847	-749.0293179437609	6396.87962786199	662.9855228682334	-758.2877173368854	6383.40508686557	660.3093669928677	-764.6896239290176	6367.491192232159	662.2817747648232	-768.9919463089874	6392.067503544016	698.5142067650165	-734.577768774431	6406.448061581734	675.8433585123586	-741.0280875673127	6404.066050304228	665.7452642021718	-747.3884885720854	6394.77710623832	663.6276836423131	-751.5485097691092	6380.990440010066	665.2796225454886	-755.0664134499428	6106.680352789653	1148.9059413118182	-429.45364254432417	6035.94657521555	1080.7881794659938	-322.9279131711365	6129.698152716079	909.3140383306221	-535.0237150815781	6355.850593991102	780.1996955802297	-549.5271356569059	6340.530248438816	776.7789205321554	-554.5315576364083	6336.8470667725505	768.2139500930023	-588.5004923715253	6335.200415278198	760.6229671523287	-614.7415334123033	6334.6132687015315	752.9033969577919	-638.8290190238143	6341.273518660665	770.5157464140275	-562.3082288147036	6327.352362814511	750.2002956769707	-599.8729083109611	6323.770181123129	736.7001105965019	-636.4263657438061	6325.226679852081	731.5581121473512	-659.8462219711847	6328.916887303344	729.4950207070843	-679.6993471351574	6344.5459376636645	766.8297506815761	-568.5266443566481	6332.73597199833	745.0207304624345	-608.5266788149853	6329.31166865525	729.8696774088329	-649.1254361131856	6331.301424685259	723.4646667534279	-677.7221358094563	6335.452228757667	721.1093821015392	-699.6110717022254	6347.154388237326	764.7228659702224	-571.8800148895378	6338.662694395851	743.2868331031398	-610.4009879793352	6336.192601168136	729.6867812472241	-646.4522696975362	6338.385138801653	723.2992330657688	-674.3893445072398	6342.417440187347	720.9854386236051	-695.1378778358339	6351.026989092443	763.0497057742086	-575.297518745155	6345.4242303932915	742.2796935279739	-612.4747632842353	6344.286479705234	730.8676996710005	-642.2137814221109	6346.292163310615	725.9562940118974	-663.0122849643616	6350.098034961154	723.7614454935399	-681.6344484884773
4	0.025	6446.805	859.65103	-201.189	6554.963165379386	856.2694055770369	-241.0089173583385	6380.455866696546	471.9148038118192	-307.38633598745207	6419.57150372477	25.971716301734087	-325.7921434696906	6308.599741944917	-38.658978311549454	-148.95604457534682	6349.832962327441	836.1554317510966	-146.81265398114897	6231.5406592317295	435.77798622711714	-102.72350857831319	6182.996612011166	52.53847998873642	53.38444502605114	6205.542948643083	7.816976854344479	238.66752485231353	6391.288512067141	977.2142603086883	-262.47783768343106	6331.774245314771	1035.3235628386158	-314.4948498152921	6261.043129678497	1085.5243655883332	-369.2988315087467	6186.034267700387	1123.775698551877	-422.21148570038514	6104.849771225971	1164.9764996712877	-475.5900375898247	6057.350403076133	1232.9286605878397	-428.4547382139243	6029.431315181864	1313.4339971242077	-290.7621704642324	6156.147041357008	1157.1569212684456	-483.9947147274617	6248.8237463364785	1143.5088350506428	-587.7277692256467	6276.3655304405565	880.1207594046091	-624.5211714898222	6370.293184560065	718.0189797951363	-727.1658656721293	6363.8719306357625	710.4571699007405	-744.8359711222602	6345.471333334827	704.5615500770444	-759.0970874737468	6335.129931238753	698.9544587988989	-767.699667476605	6328.624144982331	692.9956774410783	-773.7344540211413	6374.145942183397	703.5330809070705	-741.8885542563404	6380.547894306521	679.499555342805	-758.615738395633	6374.32569812423	667.3055793986364	-769.2145866358627	6362.085492902028	665.2995878823801	-775.0166457189649	6346.307193897501	667.3997376947207	-779.2879910275738	6380.141161396237	700.5014391472366	-737.6425383154772	6389.631295225447	675.4187485105787	-751.6613585205969	6383.598596332104	661.7962931662615	-762.6109985750013	6369.1944543015625	659.2243225242707	-769.3154581240736	6352.106703308099	661.4484670138587	-773.8454232696399	6384.339272464513	698.9122736811363	-734.2210969515093	6396.856812435726	674.8763535231438	-743.8299641250471	6392.3560242232425	662.7197751960831	-752.7221410824494	6378.864257012771	660.0885233963168	-758.8431013251744	6362.98803405802	662.1085258809067	-762.9384357540398	6388.000904485996	698.254373944353	-729.7519880509849	6402.163676779677	675.5920565456204	-735.832906368428	6399.685623226744	665.5209683995956	-741.8949624213986	6390.389359786293	663.438923250854	-745.8475989973439	6376.639083303306	665.134624419545	-749.1807287448713	6107.100566392261	1149.1702646918427	-429.33088931584103	6037.247357357118	1082.0300746773717	-322.8111349343062	6130.067148242588	909.8992954676173	-532.5866460682478	6353.867318484243	779.9661975443297	-546.8756216387045	6338.483652611109	776.3613374370213	-551.6399113369762	6334.626307499477	767.6424609717876	-585.3515870685462	6332.884401525779	759.9532181903073	-611.4143792382123	6332.2401160878435	752.1593644032658	-635.3540417930151	6339.333991696907	770.109998369657	-559.3954937336838	6325.491548182855	749.5784744846285	-596.5742993596928	6321.859679007161	735.9453002976165	-632.8715454368914	6323.200632702062	730.7396603371627	-656.1680808972908	6326.738101569769	728.6367344034958	-675.943393805722	6342.669511199261	766.4566113697424	-565.6303906397503	6330.9704804981	744.4544732214322	-605.2629666308766	6327.499898360785	729.1633276224181	-645.5855879621051	6329.354063430609	722.6839476987667	-674.0351575154632	6333.339596160034	720.2862490924697	-695.839755652513	6345.321780146196	764.3781175003226	-569.0050559802072	6336.971191028976	742.7931864350451	-607.2146254486488	6334.468688129445	729.0764719271752	-643.0293252075232	6336.534647003175	722.620078512299	-670.8266582099709	6340.413546365621	720.267774295122	-691.4969243946048	6349.232783968384	762.7452084710237	-572.4598264816009	6343.787328930783	741.862831941244	-609.373645871258	6342.635368399635	730.3665603425609	-638.9309723007589	6344.554405392972	725.4093606468169	-659.6312987509114	6348.227656751615	723.1829435572317	-678.1862888866023
